<?xml version="1.0" encoding="UTF-8"?>
<svg width="1280px" height="839px" viewBox="0 0 1280 839" version="1.1" xmlns="http://www.w3.org/2000/svg" xmlns:xlink="http://www.w3.org/1999/xlink">
    <!-- Generator: Sketch 49.3 (51167) - http://www.bohemiancoding.com/sketch -->
    <title>Group</title>
    <desc>Created with Sketch.</desc>
    <defs></defs>
    <g id="Page-1" stroke="none" stroke-width="1" fill="none" fill-rule="evenodd" opacity="0.461163949">
        <g id="Screen-1">
            <g id="Group" transform="translate(0.000000, -88.000000)">
                <path d="M1233.04515,792.415211 L1240.49012,778.219397 C1240.59384,778.021612 1240.84272,777.94309 1241.046,778.044014 C1241.12166,778.081577 1241.18358,778.140911 1241.22334,778.21394 L1248.95185,792.409754 C1249.05868,792.605972 1248.98179,792.849296 1248.78012,792.953234 C1248.72053,792.983944 1248.65413,793 1248.5867,793 L1233.41322,793 C1233.18501,793 1233,792.819996 1233,792.597949 C1233,792.534421 1233.01547,792.471797 1233.04515,792.415211 Z" id="Triangle" fill="#F5A623" opacity="0.75" transform="translate(1241.000000, 785.500000) rotate(-167.000000) translate(-1241.000000, -785.500000) "></path>
                <path d="M1007.04515,894.376225 L1014.49012,879.234024 C1014.59384,879.023053 1014.84272,878.939296 1015.046,879.046949 C1015.12166,879.087015 1015.18358,879.150305 1015.22334,879.228203 L1022.95185,894.370404 C1023.05868,894.579703 1022.98179,894.839249 1022.78012,894.950116 C1022.72053,894.982874 1022.65413,895 1022.5867,895 L1007.41322,895 C1007.18501,895 1007,894.807996 1007,894.571146 C1007,894.503383 1007.01547,894.436584 1007.04515,894.376225 Z" id="Triangle" fill="#F5A623" opacity="0.77" transform="translate(1015.000000, 887.000000) scale(-1, 1) rotate(-334.000000) translate(-1015.000000, -887.000000) "></path>
                <path d="M356.039506,801.454197 L362.553851,788.204771 C362.644613,788.020171 362.862383,787.946884 363.040253,788.04108 C363.106454,788.076138 363.160637,788.131517 363.195426,788.199678 L369.95787,801.449104 C370.051343,801.632241 369.984067,801.859343 369.807606,801.956352 C369.755467,801.985015 369.697361,802 369.638359,802 L356.361569,802 C356.16188,802 356,801.831996 356,801.624753 C356,801.56546 356.013538,801.507011 356.039506,801.454197 Z" id="Triangle" fill="#F5A623" opacity="0.83" transform="translate(363.000000, 795.000000) rotate(-227.000000) translate(-363.000000, -795.000000) "></path>
                <path d="M254.042328,92.4152106 L261.021984,78.2193971 C261.119229,78.021612 261.352553,77.9430904 261.543129,78.0440143 C261.614058,78.0815766 261.672111,78.140911 261.709385,78.2139404 L268.954861,92.4097538 C269.05501,92.605972 268.982929,92.8492963 268.793863,92.9532339 C268.738,92.9839443 268.675744,93 268.612528,93 L254.387395,93 C254.173443,93 254,92.8199958 254,92.5979495 C254,92.5344214 254.014505,92.4717975 254.042328,92.4152106 Z" id="Triangle" fill="#F5A623" opacity="0.74" transform="translate(261.500000, 85.500000) scale(-1, 1) rotate(-327.000000) translate(-261.500000, -85.500000) "></path>
                <path d="M845.033862,911.532168 L850.617587,900.175518 C850.695383,900.01729 850.882043,899.954472 851.034503,900.035211 C851.091246,900.065261 851.137689,900.112729 851.167508,900.171152 L856.963889,911.527803 C857.044008,911.684778 856.986343,911.879437 856.83509,911.962587 C856.7904,911.987155 856.740595,912 856.690022,912 L845.309916,912 C845.138754,912 845,911.855997 845,911.67836 C845,911.627537 845.011604,911.577438 845.033862,911.532168 Z" id="Triangle" fill="#F5A623" opacity="0.83" transform="translate(851.000000, 906.000000) scale(1, -1) rotate(-10.000000) translate(-851.000000, -906.000000) "></path>
                <path d="M882.033862,726.532168 L887.617587,715.175518 C887.695383,715.01729 887.882043,714.954472 888.034503,715.035211 C888.091246,715.065261 888.137689,715.112729 888.167508,715.171152 L893.963889,726.527803 C894.044008,726.684778 893.986343,726.879437 893.83509,726.962587 C893.7904,726.987155 893.740595,727 893.690022,727 L882.309916,727 C882.138754,727 882,726.855997 882,726.67836 C882,726.627537 882.011604,726.577438 882.033862,726.532168 Z" id="Triangle" fill="#F5A623" opacity="0.88" transform="translate(888.000000, 721.000000) scale(1, -1) rotate(-113.000000) translate(-888.000000, -721.000000) "></path>
                <path d="M740.033862,154.532168 L745.617587,143.175518 C745.695383,143.01729 745.882043,142.954472 746.034503,143.035211 C746.091246,143.065261 746.137689,143.112729 746.167508,143.171152 L751.963889,154.527803 C752.044008,154.684778 751.986343,154.879437 751.83509,154.962587 C751.7904,154.987155 751.740595,155 751.690022,155 L740.309916,155 C740.138754,155 740,154.855997 740,154.67836 C740,154.627537 740.011604,154.577438 740.033862,154.532168 Z" id="Triangle" fill="#F5A623" opacity="0.85" transform="translate(746.000000, 149.000000) scale(-1, -1) rotate(-328.000000) translate(-746.000000, -149.000000) "></path>
                <path d="M1197.04233,900.454197 L1204.02198,887.204771 C1204.11923,887.020171 1204.35255,886.946884 1204.54313,887.04108 C1204.61406,887.076138 1204.67211,887.131517 1204.70938,887.199678 L1211.95486,900.449104 C1212.05501,900.632241 1211.98293,900.859343 1211.79386,900.956352 C1211.738,900.985015 1211.67574,901 1211.61253,901 L1197.3874,901 C1197.17344,901 1197,900.831996 1197,900.624753 C1197,900.56546 1197.01451,900.507011 1197.04233,900.454197 Z" id="Triangle" fill="#F5A623" opacity="0.74" transform="translate(1204.500000, 894.000000) scale(-1, -1) rotate(-60.000000) translate(-1204.500000, -894.000000) "></path>
                <path d="M863.045149,543.415211 L870.490116,529.219397 C870.593844,529.021612 870.842723,528.94309 871.046004,529.044014 C871.121662,529.081577 871.183585,529.140911 871.223344,529.21394 L878.951852,543.409754 C879.058677,543.605972 878.981791,543.849296 878.780121,543.953234 C878.720533,543.983944 878.654127,544 878.586696,544 L863.413221,544 C863.185005,544 863,543.819996 863,543.597949 C863,543.534421 863.015473,543.471797 863.045149,543.415211 Z" id="Triangle" fill="#F5A623" opacity="0.9" transform="translate(871.000000, 536.500000) scale(1, -1) rotate(-160.000000) translate(-871.000000, -536.500000) "></path>
                <path d="M741.033862,477.532168 L746.617587,466.175518 C746.695383,466.01729 746.882043,465.954472 747.034503,466.035211 C747.091246,466.065261 747.137689,466.112729 747.167508,466.171152 L752.963889,477.527803 C753.044008,477.684778 752.986343,477.879437 752.83509,477.962587 C752.7904,477.987155 752.740595,478 752.690022,478 L741.309916,478 C741.138754,478 741,477.855997 741,477.67836 C741,477.627537 741.011604,477.577438 741.033862,477.532168 Z" id="Triangle" fill="#F5A623" opacity="0.84" transform="translate(747.000000, 472.000000) scale(-1, -1) rotate(-169.000000) translate(-747.000000, -472.000000) "></path>
                <path d="M550.033862,531.532168 L555.617587,520.175518 C555.695383,520.01729 555.882043,519.954472 556.034503,520.035211 C556.091246,520.065261 556.137689,520.112729 556.167508,520.171152 L561.963889,531.527803 C562.044008,531.684778 561.986343,531.879437 561.83509,531.962587 C561.7904,531.987155 561.740595,532 561.690022,532 L550.309916,532 C550.138754,532 550,531.855997 550,531.67836 C550,531.627537 550.011604,531.577438 550.033862,531.532168 Z" id="Triangle" fill="#F5A623" opacity="0.89" transform="translate(556.000000, 526.000000) scale(-1, 1) rotate(-71.000000) translate(-556.000000, -526.000000) "></path>
                <path d="M401.022575,278.688112 L404.745058,271.117012 C404.796922,271.011526 404.921362,270.969648 405.023002,271.023474 C405.060831,271.043508 405.091792,271.075153 405.111672,271.114102 L408.975926,278.685202 C409.029339,278.789852 408.990895,278.919625 408.89006,278.975058 C408.860267,278.991437 408.827063,279 408.793348,279 L401.206611,279 C401.092503,279 401,278.903998 401,278.785573 C401,278.751691 401.007736,278.718292 401.022575,278.688112 Z" id="Triangle" fill="#F5A623" opacity="0.91" transform="translate(405.000000, 275.000000) rotate(-187.000000) translate(-405.000000, -275.000000) "></path>
                <path d="M1017.0254,649.688112 L1021.21319,642.117012 C1021.27154,642.011526 1021.41153,641.969648 1021.52588,642.023474 C1021.56843,642.043508 1021.60327,642.075153 1021.62563,642.114102 L1025.97292,649.685202 C1026.03301,649.789852 1025.98976,649.919625 1025.87632,649.975058 C1025.8428,649.991437 1025.80545,650 1025.76752,650 L1017.23244,650 C1017.10407,650 1017,649.903998 1017,649.785573 C1017,649.751691 1017.0087,649.718292 1017.0254,649.688112 Z" id="Triangle" fill="#F5A623" opacity="0.81" transform="translate(1021.500000, 646.000000) scale(1, -1) rotate(-152.000000) translate(-1021.500000, -646.000000) "></path>
                <path d="M578.022575,926.688112 L581.745058,919.117012 C581.796922,919.011526 581.921362,918.969648 582.023002,919.023474 C582.060831,919.043508 582.091792,919.075153 582.111672,919.114102 L585.975926,926.685202 C586.029339,926.789852 585.990895,926.919625 585.89006,926.975058 C585.860267,926.991437 585.827063,927 585.793348,927 L578.206611,927 C578.092503,927 578,926.903998 578,926.785573 C578,926.751691 578.007736,926.718292 578.022575,926.688112 Z" id="Triangle" fill="#F5A623" opacity="0.85" transform="translate(582.000000, 923.000000) scale(-1, -1) rotate(-39.000000) translate(-582.000000, -923.000000) "></path>
                <path d="M537.019753,424.727098 L540.276926,418.102385 C540.322307,418.010086 540.431192,417.973442 540.520127,418.02054 C540.553227,418.038069 540.580318,418.065758 540.597713,418.099839 L543.978935,424.724552 C544.025671,424.81612 543.992033,424.929672 543.903803,424.978176 C543.877733,424.992507 543.848681,425 543.81918,425 L537.180784,425 C537.08094,425 537,424.915998 537,424.812376 C537,424.78273 537.006769,424.753505 537.019753,424.727098 Z" id="Triangle" fill="#F5A623" opacity="0.72" transform="translate(540.500000, 421.500000) scale(1, -1) rotate(-325.000000) translate(-540.500000, -421.500000) "></path>
                <path d="M547.028218,228.649126 L551.681322,220.131638 C551.746152,220.012967 551.901702,219.965854 552.028752,220.026409 C552.076039,220.048946 552.114741,220.084547 552.13959,220.128364 L556.969907,228.645852 C557.036673,228.763583 556.988619,228.909578 556.862575,228.97194 C556.825333,228.990367 556.783829,229 556.741685,229 L547.258263,229 C547.115628,229 547,228.891998 547,228.75877 C547,228.720653 547.00967,228.683078 547.028218,228.649126 Z" id="Triangle" fill="#F5A623" opacity="0.94" transform="translate(552.000000, 224.500000) scale(1, -1) rotate(-26.000000) translate(-552.000000, -224.500000) "></path>
                <path d="M175.019753,553.727098 L178.276926,547.102385 C178.322307,547.010086 178.431192,546.973442 178.520127,547.02054 C178.553227,547.038069 178.580318,547.065758 178.597713,547.099839 L181.978935,553.724552 C182.025671,553.81612 181.992033,553.929672 181.903803,553.978176 C181.877733,553.992507 181.848681,554 181.81918,554 L175.180784,554 C175.08094,554 175,553.915998 175,553.812376 C175,553.78273 175.006769,553.753505 175.019753,553.727098 Z" id="Triangle" fill="#F5A623" opacity="0.92" transform="translate(178.500000, 550.500000) scale(1, -1) rotate(-150.000000) translate(-178.500000, -550.500000) "></path>
                <path d="M357.022575,204.727098 L360.745058,198.102385 C360.796922,198.010086 360.921362,197.973442 361.023002,198.02054 C361.060831,198.038069 361.091792,198.065758 361.111672,198.099839 L364.975926,204.724552 C365.029339,204.81612 364.990895,204.929672 364.89006,204.978176 C364.860267,204.992507 364.827063,205 364.793348,205 L357.206611,205 C357.092503,205 357,204.915998 357,204.812376 C357,204.78273 357.007736,204.753505 357.022575,204.727098 Z" id="Triangle-Copy" fill="#F5A623" opacity="0.94" transform="translate(361.000000, 201.500000) scale(-1, 1) rotate(-257.000000) translate(-361.000000, -201.500000) "></path>
                <path d="M1079.11678,453.714876 C1079.88891,451.404977 1081.48828,450.250027 1083.91488,450.250027 C1087.55479,450.250027 1088.0747,454.969924 1091.94032,454.969924 C1095.80594,454.969924 1095.59264,450 1100.34845,450 C1105.10426,450 1105.89875,454.074136 1105.89875,454.074136 C1106.29907,455.075 1105.42647,455.905566 1104.77967,454.969924 C1104.13286,454.034283 1104.34992,451.633498 1100.34845,451.633498 C1096.34698,451.633498 1097.54789,457 1091.94032,457 C1086.33275,457 1086.92054,451.987176 1083.53014,451.987176 C1080.13975,451.987176 1081.34995,456.143155 1079.61087,455.46763 C1079.02556,455.240272 1078.86087,454.656021 1079.11678,453.714876 Z" id="Path-2" fill="#50E3C2" opacity="0.98" transform="translate(1092.500000, 453.500000) rotate(-276.000000) translate(-1092.500000, -453.500000) "></path>
                <path d="M382.11678,675.714876 C382.888913,673.404977 384.48828,672.250027 386.914883,672.250027 C390.554787,672.250027 391.074702,676.969924 394.940322,676.969924 C398.805942,676.969924 398.592636,672 403.34845,672 C408.104263,672 408.898746,676.074136 408.898746,676.074136 C409.299074,677.075 408.426467,677.905566 407.779665,676.969924 C407.132864,676.034283 407.349917,673.633498 403.34845,673.633498 C399.346982,673.633498 400.547892,679 394.940322,679 C389.332752,679 389.920535,673.987176 386.530145,673.987176 C383.139754,673.987176 384.349945,678.143155 382.610874,677.46763 C382.025564,677.240272 381.860866,676.656021 382.11678,675.714876 Z" id="Path-2" fill="#50E3C2" opacity="0.99" transform="translate(395.500000, 675.500000) rotate(-337.000000) translate(-395.500000, -675.500000) "></path>
                <path d="M360.142731,436.245572 C361.086449,433.605688 363.041231,432.285745 366.007079,432.285745 C370.45585,432.285745 371.091302,437.679914 375.815949,437.679914 C380.540596,437.679914 380.279889,432 386.09255,432 C391.90521,432 392.876245,436.656156 392.876245,436.656156 C393.365535,437.8 392.299015,438.749219 391.50848,437.679914 C390.717945,436.610609 390.983232,433.866854 386.09255,433.866854 C381.201867,433.866854 382.669646,440 375.815949,440 C368.962252,440 369.680654,434.271058 365.536843,434.271058 C361.393032,434.271058 362.872155,439.020748 360.746624,438.24872 C360.031245,437.988882 359.829947,437.321166 360.142731,436.245572 Z" id="Path-2" fill="#50E3C2" opacity="0.83" transform="translate(376.500000, 436.000000) scale(-1, -1) rotate(-44.000000) translate(-376.500000, -436.000000) "></path>
                <path d="M249.160031,459.306965 C250.218139,456.007109 252.409866,454.357181 255.73521,454.357181 C260.723226,454.357181 261.435702,461.099892 266.733034,461.099892 C272.030365,461.099892 271.738057,454 278.255283,454 C284.772509,454 285.861245,459.820194 285.861245,459.820194 C286.409842,461.25 285.214047,462.436523 284.32769,461.099892 C283.441333,459.763261 283.738775,456.333568 278.255283,456.333568 C272.771791,456.333568 274.417482,464 266.733034,464 C259.048586,464 259.854067,456.838823 255.207976,456.838823 C250.561885,456.838823 252.220295,462.775935 249.837124,461.8109 C249.035032,461.486103 248.809335,460.651458 249.160031,459.306965 Z" id="Path-2" fill="#50E3C2" opacity="0.99" transform="translate(267.500000, 459.000000) scale(-1, 1) rotate(-215.000000) translate(-267.500000, -459.000000) "></path>
                <path d="M134.11678,539.714876 C134.888913,537.404977 136.48828,536.250027 138.914883,536.250027 C142.554787,536.250027 143.074702,540.969924 146.940322,540.969924 C150.805942,540.969924 150.592636,536 155.34845,536 C160.104263,536 160.898746,540.074136 160.898746,540.074136 C161.299074,541.075 160.426467,541.905566 159.779665,540.969924 C159.132864,540.034283 159.349917,537.633498 155.34845,537.633498 C151.346982,537.633498 152.547892,543 146.940322,543 C141.332752,543 141.920535,537.987176 138.530145,537.987176 C135.139754,537.987176 136.349945,542.143155 134.610874,541.46763 C134.025564,541.240272 133.860866,540.656021 134.11678,539.714876 Z" id="Path-2" fill="#50E3C2" opacity="0.76" transform="translate(147.500000, 539.500000) scale(-1, 1) rotate(-318.000000) translate(-147.500000, -539.500000) "></path>
                <path d="M13.1643565,431.306965 C14.2510621,428.007109 16.5020241,426.357181 19.9172424,426.357181 C25.04007,426.357181 25.7718021,433.099892 31.2123049,433.099892 C36.6528077,433.099892 36.3525993,426 43.0459663,426 C49.7393332,426 50.8574946,431.820194 50.8574946,431.820194 C51.4209189,433.25 50.1928048,434.436523 49.2824921,433.099892 C48.3721795,431.763261 48.6776609,428.333568 43.0459663,428.333568 C37.4142716,428.333568 39.1044407,436 31.2123049,436 C23.3201691,436 24.1474201,428.838823 19.375759,428.838823 C14.604098,428.838823 16.3073304,434.775935 13.8597491,433.8109 C13.035979,433.486103 12.8041815,432.651458 13.1643565,431.306965 Z" id="Path-2" fill="#50E3C2" opacity="0.92" transform="translate(32.000000, 431.000000) scale(-1, -1) rotate(-215.000000) translate(-32.000000, -431.000000) "></path>
                <path d="M1262.13408,599.245572 C1263.0206,596.605688 1264.85691,595.285745 1267.64301,595.285745 C1271.82216,595.285745 1272.4191,600.679914 1276.85741,600.679914 C1281.29571,600.679914 1281.0508,595 1286.51118,595 C1291.97156,595 1292.88375,599.656156 1292.88375,599.656156 C1293.34338,600.8 1292.3415,601.749219 1291.59888,600.679914 C1290.85625,599.610609 1291.10546,596.866854 1286.51118,596.866854 C1281.91691,596.866854 1283.29573,603 1276.85741,603 C1270.41909,603 1271.09395,597.271058 1267.20128,597.271058 C1263.30861,597.271058 1264.69809,602.020748 1262.70137,601.24872 C1262.02935,600.988882 1261.84025,600.321166 1262.13408,599.245572 Z" id="Path-2" fill="#50E3C2" opacity="0.85" transform="translate(1277.500000, 599.000000) scale(-1, 1) rotate(-254.000000) translate(-1277.500000, -599.000000) "></path>
                <path d="M1046.1211,139.714876 C1046.92184,137.404977 1048.58044,136.250027 1051.09692,136.250027 C1054.87163,136.250027 1055.4108,140.969924 1059.41959,140.969924 C1063.42838,140.969924 1063.20718,136 1068.13913,136 C1073.07109,136 1073.895,140.074136 1073.895,140.074136 C1074.31015,141.075 1073.40522,141.905566 1072.73447,140.969924 C1072.06371,140.034283 1072.2888,137.633498 1068.13913,137.633498 C1063.98946,137.633498 1065.23485,143 1059.41959,143 C1053.60434,143 1054.21389,137.987176 1050.69793,137.987176 C1047.18197,137.987176 1048.43698,142.143155 1046.6335,141.46763 C1046.02651,141.240272 1045.85571,140.656021 1046.1211,139.714876 Z" id="Path-2" fill="#50E3C2" opacity="0.82" transform="translate(1060.000000, 139.500000) scale(-1, 1) rotate(-335.000000) translate(-1060.000000, -139.500000) "></path>
                <path d="M786.138405,306.245572 C787.053526,303.605688 788.949073,302.285745 791.825046,302.285745 C796.139006,302.285745 796.755202,307.679914 801.336678,307.679914 C805.918154,307.679914 805.665347,302 811.301866,302 C816.938386,302 817.879995,306.656156 817.879995,306.656156 C818.354458,307.8 817.320257,308.749219 816.553678,307.679914 C815.787098,306.610609 816.044346,303.866854 811.301866,303.866854 C806.559387,303.866854 807.982687,310 801.336678,310 C794.690669,310 795.387301,304.271058 791.36906,304.271058 C787.350819,304.271058 788.78512,309.020748 786.723999,308.24872 C786.030298,307.988882 785.8351,307.321166 786.138405,306.245572 Z" id="Path-2" fill="#50E3C2" opacity="0.74" transform="translate(802.000000, 306.000000) rotate(-342.000000) translate(-802.000000, -306.000000) "></path>
                <path d="M483.090829,860.653483 C483.691376,859.003555 484.935329,858.178591 486.822687,858.178591 C489.653723,858.178591 490.058101,861.549946 493.064695,861.549946 C496.071288,861.549946 495.905384,858 499.60435,858 C503.303316,858 503.921247,860.910097 503.921247,860.910097 C504.232613,861.625 503.553918,862.218262 503.050851,861.549946 C502.547783,860.88163 502.716602,859.166784 499.60435,859.166784 C496.492097,859.166784 497.426138,863 493.064695,863 C488.703251,863 489.160416,859.419411 486.523446,859.419411 C483.886475,859.419411 484.827735,862.387968 483.475125,861.90545 C483.019883,861.743051 482.891785,861.325729 483.090829,860.653483 Z" id="Path-2" fill="#50E3C2" opacity="0.98" transform="translate(493.500000, 860.500000) scale(-1, 1) rotate(-84.000000) translate(-493.500000, -860.500000) "></path>
                <path d="M31.1081293,711.184179 C31.8230672,709.204266 33.3039632,708.214309 35.5508174,708.214309 C38.9210987,708.214309 39.4025014,712.259935 42.9817796,712.259935 C46.5610577,712.259935 46.3635522,708 50.7670831,708 C55.170614,708 55.9062464,711.492117 55.9062464,711.492117 C56.2769203,712.35 55.4689505,713.061914 54.8700606,712.259935 C54.2711707,711.457956 54.4721453,709.400141 50.7670831,709.400141 C47.0620208,709.400141 48.1739742,714 42.9817796,714 C37.7895849,714 38.333829,709.703294 35.1945783,709.703294 C32.0553276,709.703294 33.1758753,713.265561 31.5656244,712.68654 C31.0236704,712.491662 30.871172,711.990875 31.1081293,711.184179 Z" id="Path-2" fill="#50E3C2" opacity="0.86" transform="translate(43.500000, 711.000000) scale(1, -1) rotate(-33.000000) translate(-43.500000, -711.000000) "></path>
                <path d="M115.13408,188.245572 C116.020603,185.605688 117.856914,184.285745 120.643014,184.285745 C124.822162,184.285745 125.419102,189.679914 129.857407,189.679914 C134.295712,189.679914 134.050805,184 139.511183,184 C144.971561,184 145.883746,188.656156 145.883746,188.656156 C146.343381,189.8 145.341499,190.749219 144.598875,189.679914 C143.856252,188.610609 144.10546,185.866854 139.511183,185.866854 C134.916906,185.866854 136.295728,192 129.857407,192 C123.419085,192 124.093948,186.271058 120.201277,186.271058 C116.308606,186.271058 117.698085,191.020748 115.701374,190.24872 C115.029351,189.988882 114.840253,189.321166 115.13408,188.245572 Z" id="Path-2" fill="#50E3C2" opacity="0.8" transform="translate(130.500000, 188.000000) rotate(-223.000000) translate(-130.500000, -188.000000) "></path>
                <path d="M914.12543,801.245572 C914.954758,798.605688 916.672597,797.285745 919.278948,797.285745 C923.188474,797.285745 923.746902,802.679914 927.898864,802.679914 C932.050827,802.679914 931.821721,797 936.929816,797 C942.037912,797 942.891246,801.656156 942.891246,801.656156 C943.321228,802.8 942.383983,803.749219 941.68927,802.679914 C940.994558,801.610609 941.227689,798.866854 936.929816,798.866854 C932.631944,798.866854 933.92181,805 927.898864,805 C921.875919,805 922.507242,799.271058 918.865711,799.271058 C915.22418,799.271058 916.524015,804.020748 914.656124,803.24872 C914.027458,802.988882 913.85056,802.321166 914.12543,801.245572 Z" id="Path-2" fill="#50E3C2" opacity="0.97" transform="translate(928.500000, 801.000000) rotate(-127.000000) translate(-928.500000, -801.000000) "></path>
                <path d="M1006.11245,789.714876 C1006.85599,787.404977 1008.39612,786.250027 1010.73285,786.250027 C1014.23794,786.250027 1014.7386,790.969924 1018.46105,790.969924 C1022.1835,790.969924 1021.97809,786 1026.55777,786 C1031.13744,786 1031.9025,790.074136 1031.9025,790.074136 C1032.288,791.075 1031.44771,791.905566 1030.82486,790.969924 C1030.20202,790.034283 1030.41103,787.633498 1026.55777,787.633498 C1022.7045,787.633498 1023.86093,793 1018.46105,793 C1013.06117,793 1013.62718,787.987176 1010.36236,787.987176 C1007.09754,787.987176 1008.26291,792.143155 1006.58825,791.46763 C1006.02462,791.240272 1005.86602,790.656021 1006.11245,789.714876 Z" id="Path-2" fill="#50E3C2" opacity="0.71" transform="translate(1019.000000, 789.500000) scale(1, -1) rotate(-191.000000) translate(-1019.000000, -789.500000) "></path>
                <path d="M440.103804,892.184179 C440.790144,890.204266 442.211805,889.214309 444.368785,889.214309 C447.604255,889.214309 448.066401,893.259935 451.502508,893.259935 C454.938615,893.259935 454.74901,889 458.9764,889 C463.203789,889 463.909997,892.492117 463.909997,892.492117 C464.265843,893.35 463.490192,894.061914 462.915258,893.259935 C462.340324,892.457956 462.53326,890.400141 458.9764,890.400141 C455.41954,890.400141 456.487015,895 451.502508,895 C446.518002,895 447.040476,890.703294 444.026795,890.703294 C441.013115,890.703294 442.08884,894.265561 440.542999,893.68654 C440.022724,893.491662 439.876325,892.990875 440.103804,892.184179 Z" id="Path-2" fill="#50E3C2" opacity="0.74" transform="translate(452.000000, 892.000000) rotate(-223.000000) translate(-452.000000, -892.000000) "></path>
                <path d="M292.095154,725.653483 C292.724299,724.003555 294.027488,723.178591 296.004719,723.178591 C298.970567,723.178591 299.394201,726.549946 302.543966,726.549946 C305.693731,726.549946 305.519926,723 309.395033,723 C313.27014,723 313.917497,725.910097 313.917497,725.910097 C314.24369,726.625 313.532676,727.218262 313.005653,726.549946 C312.47863,725.88163 312.655488,724.166784 309.395033,724.166784 C306.134578,724.166784 307.113097,728 302.543966,728 C297.974835,728 298.45377,724.419411 295.691229,724.419411 C292.928688,724.419411 293.91477,727.387968 292.49775,726.90545 C292.02083,726.743051 291.886631,726.325729 292.095154,725.653483 Z" id="Path-2" fill="#50E3C2" opacity="0.93" transform="translate(303.000000, 725.500000) scale(-1, 1) rotate(-353.000000) translate(-303.000000, -725.500000) "></path>
                <path d="M-8.89187075,340.184179 C-8.17693284,338.204266 -6.6960368,337.214309 -4.44918261,337.214309 C-1.07890132,337.214309 -0.597498595,341.259935 2.98177955,341.259935 C6.5610577,341.259935 6.36355218,337 10.7670831,337 C15.170614,337 15.9062464,340.492117 15.9062464,340.492117 C16.2769203,341.35 15.4689505,342.061914 14.8700606,341.259935 C14.2711707,340.457956 14.4721453,338.400141 10.7670831,338.400141 C7.06202081,338.400141 8.17397416,343 2.98177955,343 C-2.21041506,343 -1.66617101,338.703294 -4.8054217,338.703294 C-7.94467238,338.703294 -6.82412474,342.265561 -8.43437556,341.68654 C-8.97632958,341.491662 -9.12882797,340.990875 -8.89187075,340.184179 Z" id="Path-2" fill="#50E3C2" opacity="0.97" transform="translate(3.500000, 340.000000) scale(-1, -1) rotate(-88.000000) translate(-3.500000, -340.000000) "></path>
                <path d="M880.138405,420.245572 C881.053526,417.605688 882.949073,416.285745 885.825046,416.285745 C890.139006,416.285745 890.755202,421.679914 895.336678,421.679914 C899.918154,421.679914 899.665347,416 905.301866,416 C910.938386,416 911.879995,420.656156 911.879995,420.656156 C912.354458,421.8 911.320257,422.749219 910.553678,421.679914 C909.787098,420.610609 910.044346,417.866854 905.301866,417.866854 C900.559387,417.866854 901.982687,424 895.336678,424 C888.690669,424 889.387301,418.271058 885.36906,418.271058 C881.350819,418.271058 882.78512,423.020748 880.723999,422.24872 C880.030298,421.988882 879.8351,421.321166 880.138405,420.245572 Z" id="Path-2" fill="#50E3C2" opacity="0.71" transform="translate(896.000000, 420.000000) rotate(-3.000000) translate(-896.000000, -420.000000) "></path>
                <path d="M577.138405,272.245572 C578.053526,269.605688 579.949073,268.285745 582.825046,268.285745 C587.139006,268.285745 587.755202,273.679914 592.336678,273.679914 C596.918154,273.679914 596.665347,268 602.301866,268 C607.938386,268 608.879995,272.656156 608.879995,272.656156 C609.354458,273.8 608.320257,274.749219 607.553678,273.679914 C606.787098,272.610609 607.044346,269.866854 602.301866,269.866854 C597.559387,269.866854 598.982687,276 592.336678,276 C585.690669,276 586.387301,270.271058 582.36906,270.271058 C578.350819,270.271058 579.78512,275.020748 577.723999,274.24872 C577.030298,273.988882 576.8351,273.321166 577.138405,272.245572 Z" id="Path-2" fill="#50E3C2" opacity="0.94" transform="translate(593.000000, 272.000000) scale(-1, 1) rotate(-189.000000) translate(-593.000000, -272.000000) "></path>
                <path d="M386.12543,524.245572 C386.954758,521.605688 388.672597,520.285745 391.278948,520.285745 C395.188474,520.285745 395.746902,525.679914 399.898864,525.679914 C404.050827,525.679914 403.821721,520 408.929816,520 C414.037912,520 414.891246,524.656156 414.891246,524.656156 C415.321228,525.8 414.383983,526.749219 413.68927,525.679914 C412.994558,524.610609 413.227689,521.866854 408.929816,521.866854 C404.631944,521.866854 405.92181,528 399.898864,528 C393.875919,528 394.507242,522.271058 390.865711,522.271058 C387.22418,522.271058 388.524015,527.020748 386.656124,526.24872 C386.027458,525.988882 385.85056,525.321166 386.12543,524.245572 Z" id="Path-2" fill="#50E3C2" opacity="0.92" transform="translate(400.500000, 524.000000) scale(-1, -1) rotate(-277.000000) translate(-400.500000, -524.000000) "></path>
                <path d="M695.129755,773.245572 C695.987681,770.605688 697.764756,769.285745 700.460981,769.285745 C704.505318,769.285745 705.083002,774.679914 709.378135,774.679914 C713.673269,774.679914 713.436263,769 718.7205,769 C724.004737,769 724.887496,773.656156 724.887496,773.656156 C725.332304,774.8 724.362741,775.749219 723.644073,774.679914 C722.925405,773.610609 723.166574,770.866854 718.7205,770.866854 C714.274425,770.866854 715.608769,777 709.378135,777 C703.147502,777 703.800595,771.271058 700.033494,771.271058 C696.266393,771.271058 697.61105,776.020748 695.678749,775.24872 C695.028405,774.988882 694.845406,774.321166 695.129755,773.245572 Z" id="Path-2-Copy" fill="#50E3C2" opacity="0.75" transform="translate(710.000000, 773.000000) scale(1, -1) rotate(-206.000000) translate(-710.000000, -773.000000) "></path>
                <path d="M518.138405,655.245572 C519.053526,652.605688 520.949073,651.285745 523.825046,651.285745 C528.139006,651.285745 528.755202,656.679914 533.336678,656.679914 C537.918154,656.679914 537.665347,651 543.301866,651 C548.938386,651 549.879995,655.656156 549.879995,655.656156 C550.354458,656.8 549.320257,657.749219 548.553678,656.679914 C547.787098,655.610609 548.044346,652.866854 543.301866,652.866854 C538.559387,652.866854 539.982687,659 533.336678,659 C526.690669,659 527.387301,653.271058 523.36906,653.271058 C519.350819,653.271058 520.78512,658.020748 518.723999,657.24872 C518.030298,656.988882 517.8351,656.321166 518.138405,655.245572 Z" id="Path-2-Copy" fill="#50E3C2" opacity="0.75" transform="translate(534.000000, 655.000000) scale(-1, 1) rotate(-56.000000) translate(-534.000000, -655.000000) "></path>
                <circle id="Oval" fill="#F8E71C" opacity="0.82" transform="translate(1217.500000, 650.500000) scale(-1, 1) rotate(-320.000000) translate(-1217.500000, -650.500000) " cx="1217.5" cy="650.5" r="6.5"></circle>
                <circle id="Oval" fill="#F8E71C" opacity="0.87" transform="translate(1176.000000, 231.000000) scale(-1, -1) rotate(-235.000000) translate(-1176.000000, -231.000000) " cx="1176" cy="231" r="6"></circle>
                <circle id="Oval" fill="#F8E71C" opacity="0.79" transform="translate(1027.500000, 538.500000) scale(-1, 1) rotate(-117.000000) translate(-1027.500000, -538.500000) " cx="1027.5" cy="538.5" r="4.5"></circle>
                <circle id="Oval" fill="#F8E71C" opacity="0.76" transform="translate(735.500000, 914.500000) scale(-1, 1) rotate(-184.000000) translate(-735.500000, -914.500000) " cx="735.5" cy="914.5" r="5.5"></circle>
                <ellipse id="Oval" fill="#F8E71C" opacity="0.78" transform="translate(166.500000, 814.000000) scale(1, -1) rotate(-148.000000) translate(-166.500000, -814.000000) " cx="166.5" cy="814" rx="6.5" ry="7"></ellipse>
                <circle id="Oval" fill="#F8E71C" opacity="0.83" transform="translate(78.000000, 825.000000) scale(-1, -1) rotate(-210.000000) translate(-78.000000, -825.000000) " cx="78" cy="825" r="4"></circle>
                <circle id="Oval" fill="#F8E71C" opacity="0.79" transform="translate(1271.000000, 343.000000) scale(1, -1) rotate(-325.000000) translate(-1271.000000, -343.000000) " cx="1271" cy="343" r="4"></circle>
                <circle id="Oval" fill="#F8E71C" opacity="0.82" transform="translate(1009.500000, 281.500000) scale(1, -1) rotate(-142.000000) translate(-1009.500000, -281.500000) " cx="1009.5" cy="281.5" r="3.5"></circle>
                <ellipse id="Oval" fill="#F8E71C" opacity="0.76" transform="translate(930.000000, 219.500000) scale(-1, 1) rotate(-120.000000) translate(-930.000000, -219.500000) " cx="930" cy="219.5" rx="7" ry="7.5"></ellipse>
                <circle id="Oval" fill="#F8E71C" opacity="0.95" transform="translate(791.000000, 566.000000) scale(-1, 1) rotate(-252.000000) translate(-791.000000, -566.000000) " cx="791" cy="566" r="7"></circle>
                <ellipse id="Oval" fill="#F8E71C" opacity="0.99" transform="translate(937.500000, 348.000000) scale(-1, -1) rotate(-311.000000) translate(-937.500000, -348.000000) " cx="937.5" cy="348" rx="6.5" ry="7"></ellipse>
                <circle id="Oval" fill="#F8E71C" opacity="0.88" transform="translate(652.000000, 639.000000) scale(-1, -1) rotate(-64.000000) translate(-652.000000, -639.000000) " cx="652" cy="639" r="4"></circle>
                <ellipse id="Oval" fill="#F8E71C" opacity="0.77" transform="translate(274.000000, 347.500000) scale(1, -1) rotate(-12.000000) translate(-274.000000, -347.500000) " cx="274" cy="347.5" rx="7" ry="7.5"></ellipse>
                <circle id="Oval" fill="#F8E71C" opacity="0.84" transform="translate(184.000000, 198.000000) rotate(-160.000000) translate(-184.000000, -198.000000) " cx="184" cy="198" r="5"></circle>
                <circle id="Oval" fill="#F8E71C" opacity="0.77" transform="translate(1198.500000, 437.500000) scale(-1, 1) rotate(-323.000000) translate(-1198.500000, -437.500000) " cx="1198.5" cy="437.5" r="6.5"></circle>
            </g>
        </g>
    </g>
</svg>