<?xml version="1.0" encoding="UTF-8"?>
<svg width="180px" height="35px" viewBox="0 0 180 35" version="1.1" xmlns="http://www.w3.org/2000/svg" xmlns:xlink="http://www.w3.org/1999/xlink">
    <!-- Generator: Sketch 49.3 (51167) - http://www.bohemiancoding.com/sketch -->
    <title>Group 7</title>
    <desc>Created with Sketch.</desc>
    <defs></defs>
    <g id="Page-1" stroke="none" stroke-width="1" fill="none" fill-rule="evenodd">
        <g id="Screen-2" transform="translate(-403.000000, -47.000000)">
            <g id="Group-7" transform="translate(405.000000, 49.000000)">
                <g id="Group-Copy">
                    <g id="Group-2" stroke="#BEBEBE" stroke-width="4">
                        <path d="M0.337439343,8.76086957 L0.337439343,2.5092011 C0.395242208,1.06103805 1.23387732,0.336956522 2.85334469,0.336956522 L9.11086226,0.336956522" id="Path-4"></path>
                        <path d="M0,30.6630435 L0,24.411375 C0.057802865,22.963212 0.89643798,22.2391304 2.51590535,22.2391304 L8.77342292,22.2391304" id="Path-4-Copy-2" transform="translate(4.386711, 26.451087) rotate(-90.000000) translate(-4.386711, -26.451087) "></path>
                        <path d="M22.9458753,8.76086957 L22.9458753,2.5092011 C23.0036782,1.06103805 23.8423133,0.336956522 25.4617807,0.336956522 L31.7192982,0.336956522" id="Path-4-Copy" transform="translate(27.332587, 4.548913) rotate(-270.000000) translate(-27.332587, -4.548913) "></path>
                        <path d="M22.9458753,31 L22.9458753,24.7483315 C23.0036782,23.3001685 23.8423133,22.576087 25.4617807,22.576087 L31.7192982,22.576087" id="Path-4-Copy-3" transform="translate(27.332587, 26.788043) rotate(-180.000000) translate(-27.332587, -26.788043) "></path>
                    </g>
                    <g id="high-voltage" transform="translate(15.823313, 15.844630) rotate(-1.000000) translate(-15.823313, -15.844630) translate(9.823313, 3.344630)" fill="#50E3C2" fill-rule="nonzero" stroke="#50E3C2">
                        <path d="M1.15914943,24.8084835 C0.891929281,24.6353554 5.50747485,14.9857265 5.34835614,14.5626464 C5.18923744,14.1398406 0.295716727,12.5915649 0.0566250135,11.8471963 C-0.1824667,11.102279 9.71874308,-0.0956255536 9.97879324,0.120304442 C10.2382919,0.336234437 5.66411163,10.0503405 5.78958652,10.3658672 C5.91450988,10.6813939 10.9301962,12.2941467 11.0813177,13.0815916 C11.2324391,13.8690364 1.42609381,24.9816116 1.15914943,24.8084835 Z" id="Shape" transform="translate(5.567705, 12.463854) rotate(-360.000000) translate(-5.567705, -12.463854) "></path>
                    </g>
                </g>
                <path d="M54.1878748,6.52993233 L54.1878748,21.526809 L62.6764291,21.526809 C63.3532607,21.526809 63.8726272,21.6907844 64.2345441,22.0187402 C64.596461,22.3466961 64.7774168,22.7589772 64.7774168,23.255596 C64.7774168,23.761585 64.5988111,24.1715237 64.2415944,24.4854243 C63.8843777,24.7993248 63.3626612,24.9562728 62.6764291,24.9562728 L52.5663071,24.9562728 C51.6544645,24.9562728 50.9987937,24.7548172 50.599275,24.3519001 C50.1997563,23.9489829 50,23.2977661 50,22.3982301 L50,6.52993233 C50,5.68661733 50.190356,5.05414058 50.5710738,4.63248308 C50.9517916,4.21082559 51.4523575,4 52.0727865,4 C52.7026159,4 53.2125821,4.20848308 53.6027004,4.62545549 C53.9928186,5.0424279 54.1878748,5.67724717 54.1878748,6.52993233 Z M72.467546,11.8849558 L72.467546,22.9744925 C72.467546,23.7428461 72.2842401,24.3237877 71.917623,24.7173347 C71.5510059,25.1108817 71.0856911,25.3076523 70.5216648,25.3076523 C69.9576384,25.3076523 69.4993738,25.1061967 69.1468574,24.7032795 C68.7943409,24.3003624 68.6180853,23.7241058 68.6180853,22.9744925 L68.6180853,11.9973972 C68.6180853,11.2384137 68.7943409,10.6668421 69.1468574,10.2826653 C69.4993738,9.89848845 69.9576384,9.70640292 70.5216648,9.70640292 C71.0856911,9.70640292 71.5510059,9.89848845 71.917623,10.2826653 C72.2842401,10.6668421 72.467546,11.2009336 72.467546,11.8849558 Z M70.5639665,7.92139511 C70.0281415,7.92139511 69.5698769,7.75741965 69.1891591,7.42946382 C68.8084413,7.10150799 68.6180853,6.6376917 68.6180853,6.03800104 C68.6180853,5.49453138 68.8131415,5.04711264 69.2032597,4.69573139 C69.593378,4.34435014 70.0469424,4.16866216 70.5639665,4.16866216 C71.0621898,4.16866216 71.5040038,4.3279526 71.8894218,4.64653826 C72.2748399,4.96512393 72.467546,5.42894021 72.467546,6.03800104 C72.467546,6.62832154 72.27954,7.08979532 71.9035224,7.42243623 C71.5275049,7.75507714 71.0809907,7.92139511 70.5639665,7.92139511 Z M91.9598678,12.5174388 L91.9598678,23.6631963 C91.9598678,24.9375389 91.8235634,26.033832 91.5509507,26.9521083 C91.2783379,27.8703846 90.8412241,28.6293567 90.239596,29.2290474 C89.6379678,29.828738 88.8506929,30.2738143 87.8777474,30.5642894 C86.9048019,30.8547646 85.6945135,31 84.2468458,31 C82.9213839,31 81.7369463,30.814942 80.6934975,30.4448204 C79.6500488,30.0746988 78.8463233,29.5968275 78.2822969,29.0111921 C77.7182705,28.4255567 77.4362616,27.8235325 77.4362616,27.2051015 C77.4362616,26.7365932 77.5960667,26.3547646 77.9156816,26.0596044 C78.2352965,25.7644441 78.6207088,25.6168662 79.0719298,25.6168662 C79.6359562,25.6168662 80.1294719,25.8651719 80.5524916,26.3617907 C80.7593013,26.6147852 80.9731581,26.8701184 81.1940684,27.127798 C81.4149787,27.3854776 81.6593865,27.6056732 81.927299,27.7883915 C82.1952115,27.9711097 82.5171718,28.1069751 82.8931893,28.1959917 C83.2692069,28.2850083 83.7016206,28.3295159 84.1904435,28.3295159 C85.1868901,28.3295159 85.9600646,28.191308 86.5099903,27.9148881 C87.059916,27.6384682 87.4453282,27.2519546 87.6662386,26.7553358 C87.8871489,26.2587169 88.016403,25.726968 88.0540047,25.1600729 C88.0916065,24.5931778 88.1198074,23.6819428 88.1386083,22.4263404 C87.5463806,23.2509151 86.8625089,23.8787069 86.0869726,24.3097345 C85.3114364,24.7407622 84.3878571,24.9562728 83.316207,24.9562728 C82.0283468,24.9562728 80.9026611,24.6283219 79.939116,23.9724102 C78.975571,23.3164985 78.2352975,22.398236 77.7182734,21.217595 C77.2012492,20.036954 76.942741,18.6736152 76.942741,17.1275377 C76.942741,15.9750073 77.100196,14.9349344 77.4151107,14.0072879 C77.7300254,13.0796414 78.1788897,12.2972442 78.7617169,11.6600729 C79.3445441,11.0229016 80.0166655,10.5426877 80.7781011,10.219417 C81.5395366,9.89614622 82.3761632,9.73451327 83.2880058,9.73451327 C84.3784568,9.73451327 85.3231868,9.94299635 86.1222241,10.3599688 C86.9212615,10.7769412 87.663885,11.4305005 88.3501171,12.3206663 L88.3501171,11.8006247 C88.3501171,11.1353428 88.5146223,10.6199914 88.8436377,10.2545549 C89.1726531,9.88911842 89.5956665,9.70640292 90.1126907,9.70640292 C90.8553254,9.70640292 91.348841,9.94768109 91.5932525,10.4302447 C91.8376639,10.9128082 91.9598678,11.6085327 91.9598678,12.5174388 Z M80.8063022,17.380531 C80.8063022,18.9359786 81.1470631,20.1119169 81.8285949,20.9083811 C82.5101268,21.7048452 83.3914047,22.1030713 84.4724553,22.1030713 C85.1116851,22.1030713 85.7156543,21.9320683 86.2843809,21.5900573 C86.8531075,21.2480462 87.3160722,20.7326948 87.6732888,20.0439875 C88.0305055,19.3552803 88.2091112,18.5190054 88.2091112,17.5351379 C88.2091112,15.9703201 87.8636502,14.7522167 87.172718,13.8807913 C86.4817857,13.0093658 85.5723068,12.5736596 84.4442541,12.5736596 C83.3444027,12.5736596 82.4631247,12.9906257 81.8003937,13.8245705 C81.1376628,14.6585154 80.8063022,15.8438237 80.8063022,17.380531 Z M100.975452,6.33315981 L100.975452,12.0255075 C101.464275,11.4632976 101.94134,11.0182213 102.406662,10.6902655 C102.871984,10.3623097 103.38665,10.1163465 103.950676,9.95236856 C104.514703,9.78839064 105.121022,9.70640292 105.769652,9.70640292 C106.747298,9.70640292 107.614476,9.91254349 108.371211,10.3248308 C109.127946,10.7371181 109.722515,11.3367998 110.154935,12.1238938 C110.427548,12.583032 110.610854,13.0960409 110.704858,13.662936 C110.798863,14.229831 110.845864,14.8833904 110.845864,15.6236335 L110.845864,22.9744925 C110.845864,23.7428461 110.669609,24.3237877 110.317092,24.7173347 C109.964576,25.1108817 109.496911,25.3076523 108.914084,25.3076523 C107.645024,25.3076523 107.010504,24.5299401 107.010504,22.9744925 L107.010504,16.4950547 C107.010504,15.2675628 106.827198,14.3235327 106.460581,13.662936 C106.093964,13.0023392 105.398342,12.6720458 104.373694,12.6720458 C103.687462,12.6720458 103.069392,12.8664738 102.519467,13.2553358 C101.969541,13.6441977 101.558278,14.1759467 101.285665,14.8505986 C101.078856,15.4221788 100.975452,16.4388266 100.975452,17.9005726 L100.975452,22.9744925 C100.975452,23.7334759 100.803897,24.3120751 100.460781,24.7103071 C100.117665,25.1085392 99.6405996,25.3076523 99.0295711,25.3076523 C97.7605117,25.3076523 97.1259916,24.5299401 97.1259916,22.9744925 L97.1259916,6.33315981 C97.1259916,5.55543599 97.2928469,4.97215187 97.6265625,4.58328995 C97.9602781,4.19442804 98.4279429,4 99.0295711,4 C99.6405996,4 100.117665,4.19677055 100.460781,4.59031754 C100.803897,4.98386454 100.975452,5.56480615 100.975452,6.33315981 Z M116.223497,10.0437272 L116.646515,10.0437272 L116.646515,7.73867777 C116.646515,7.12024678 116.662965,6.63534793 116.695867,6.28396668 C116.728768,5.93258544 116.820421,5.6304021 116.970828,5.3774076 C117.121235,5.11504294 117.337442,4.90187484 117.619455,4.73789693 C117.901468,4.57391901 118.216378,4.49193129 118.564195,4.49193129 C119.053017,4.49193129 119.494831,4.67464679 119.88965,5.04008329 C120.152862,5.28370762 120.319718,5.58120595 120.390221,5.93258719 C120.460724,6.28396844 120.495975,6.78292233 120.495975,7.42946382 L120.495975,10.0437272 L121.906034,10.0437272 C122.45126,10.0437272 122.867223,10.1725651 123.153936,10.4302447 C123.44065,10.6879242 123.584004,11.0182177 123.584004,11.4211348 C123.584004,11.936494 123.379548,12.29724 122.970629,12.5033837 C122.561709,12.7095273 121.976541,12.8125976 121.215105,12.8125976 L120.495975,12.8125976 L120.495975,19.8682978 C120.495975,20.4679884 120.517126,20.9294622 120.559428,21.252733 C120.60173,21.5760037 120.714533,21.8383644 120.897842,22.039823 C121.081151,22.2412816 121.37961,22.3420094 121.793229,22.3420094 C122.01884,22.3420094 122.32435,22.3021868 122.709768,22.2225403 C123.095186,22.1428939 123.395995,22.1030713 123.612205,22.1030713 C123.92242,22.1030713 124.202079,22.2272242 124.45119,22.4755336 C124.700302,22.723843 124.824856,23.0307113 124.824856,23.3961478 C124.824856,24.0145788 124.486445,24.4877651 123.809614,24.815721 C123.132782,25.1436768 122.159851,25.3076523 120.890792,25.3076523 C119.687535,25.3076523 118.775707,25.1061967 118.155278,24.7032795 C117.534849,24.3003624 117.128286,23.7428458 116.935577,23.0307132 C116.742868,22.3185805 116.646515,21.3675229 116.646515,20.1775117 L116.646515,12.8125976 L116.138893,12.8125976 C115.584267,12.8125976 115.161254,12.6814172 114.86984,12.4190526 C114.578427,12.1566879 114.432722,11.824052 114.432722,11.4211348 C114.432722,11.0182177 114.585477,10.6879242 114.890991,10.4302447 C115.196506,10.1725651 115.64067,10.0437272 116.223497,10.0437272 Z M131.147228,11.8568454 L131.147228,12.3206663 C131.871062,11.4305005 132.623086,10.7769412 133.403322,10.3599688 C134.183559,9.94299635 135.067187,9.73451327 136.054233,9.73451327 C137.238688,9.73451327 138.329123,10.0390391 139.325569,10.6480999 C140.322016,11.2571608 141.109291,12.1473132 141.687418,13.3185841 C142.265545,14.4898549 142.554604,15.8766187 142.554604,17.4789172 C142.554604,18.6595582 142.387749,19.7441387 142.054033,20.7326913 C141.720318,21.7212439 141.262053,22.5504912 140.679226,23.2204581 C140.096399,23.890425 139.407827,24.4057764 138.61349,24.7665279 C137.819153,25.1272793 136.966075,25.3076523 136.054233,25.3076523 C134.954381,25.3076523 134.030802,25.0874567 133.283467,24.6470588 C132.536132,24.206661 131.82406,23.5601292 131.147228,22.707444 L131.147228,28.4700677 C131.147228,30.1566977 130.531508,31 129.300051,31 C128.576217,31 128.096802,30.7821469 127.861791,30.3464341 C127.62678,29.9107214 127.509276,29.2759021 127.509276,28.4419573 L127.509276,11.8849558 C127.509276,11.1540828 127.669081,10.6082787 127.988696,10.2475273 C128.308311,9.88677592 128.745425,9.70640292 129.300051,9.70640292 C129.845276,9.70640292 130.289441,9.89146093 130.632557,10.2615825 C130.975673,10.6317041 131.147228,11.1634531 131.147228,11.8568454 Z M138.691043,17.4367517 C138.691043,16.4247737 138.535938,15.5557038 138.225723,14.8295159 C137.915509,14.103328 137.485445,13.5458114 136.93552,13.1569495 C136.385594,12.7680876 135.776925,12.5736596 135.109493,12.5736596 C134.047244,12.5736596 133.151865,12.9906257 132.423331,13.8245705 C131.694797,14.6585154 131.330536,15.8859888 131.330536,17.5070276 C131.330536,19.0343647 131.692447,20.2220155 132.416281,21.0700156 C133.140115,21.9180157 134.037843,22.3420094 135.109493,22.3420094 C135.748723,22.3420094 136.340942,22.1569514 136.886168,21.7868298 C137.431393,21.4167082 137.868507,20.8615342 138.197522,20.121291 C138.526538,19.3810478 138.691043,18.4862103 138.691043,17.4367517 Z M156.731004,23.1431546 C155.800361,23.8646574 154.900282,24.4057764 154.030741,24.7665279 C153.161201,25.1272793 152.18592,25.3076523 151.104869,25.3076523 C150.117823,25.3076523 149.250646,25.1132242 148.503311,24.7243623 C147.755976,24.3355004 147.180207,23.8084364 146.775989,23.1431546 C146.37177,22.4778728 146.169663,21.7563808 146.169663,20.9786569 C146.169663,19.9291983 146.503374,19.0343608 147.170805,18.2941176 C147.838236,17.5538745 148.754765,17.0572631 149.92042,16.8042686 C150.164831,16.7480476 150.77115,16.6215523 151.739396,16.4247788 C152.707641,16.2280053 153.537217,16.0476323 154.22815,15.8836543 C154.919082,15.7196764 155.668756,15.5205634 156.477193,15.2863092 C156.430191,14.2743312 156.225735,13.5317567 155.863818,13.0585632 C155.501901,12.5853698 154.752227,12.3487767 153.614774,12.3487767 C152.637128,12.3487767 151.901555,12.4846421 151.408032,12.7563769 C150.914509,13.0281117 150.491495,13.4357079 150.138979,13.9791775 C149.786462,14.5226472 149.537355,14.8810507 149.391648,15.0543988 C149.245941,15.2277468 148.933381,15.3144196 148.453959,15.3144196 C148.021538,15.3144196 147.647877,15.1762117 147.332962,14.8997918 C147.018047,14.6233719 146.860592,14.2696534 146.860592,13.8386257 C146.860592,13.1639737 147.1003,12.5080719 147.579722,11.8709006 C148.059145,11.2337292 148.806468,10.7090078 149.821716,10.2967205 C150.836963,9.88443313 152.101303,9.67829256 153.614774,9.67829256 C155.306853,9.67829256 156.636995,9.87740561 157.605241,10.2756377 C158.573486,10.6738698 159.257358,11.304004 159.656876,12.1660593 C160.056395,13.0281147 160.256151,14.1712578 160.256151,15.5955232 C160.256151,16.4950592 160.253801,17.2587163 160.249101,17.8865174 C160.244401,18.5143186 160.23735,19.2123855 160.22795,19.9807392 C160.22795,20.702242 160.347804,21.4541866 160.587515,22.2365955 C160.827226,23.0190044 160.94708,23.5226433 160.94708,23.7475273 C160.94708,24.1410743 160.761424,24.4994778 160.390107,24.8227486 C160.018789,25.1460193 159.598126,25.3076523 159.128104,25.3076523 C158.733286,25.3076523 158.343173,25.1225943 157.957755,24.7524727 C157.572337,24.3823511 157.163424,23.8459171 156.731004,23.1431546 Z M156.477193,17.5913587 C155.913167,17.7975023 155.092991,18.0153554 154.016641,18.2449245 C152.94029,18.4744936 152.195317,18.6431541 151.781697,18.750911 C151.368078,18.8586679 150.973266,19.0694935 150.597248,19.3833941 C150.22123,19.6972946 150.033225,20.1353434 150.033225,20.6975534 C150.033225,21.2785037 150.254132,21.7727726 150.695952,22.1803748 C151.137773,22.5879771 151.715891,22.7917751 152.430325,22.7917751 C153.19176,22.7917751 153.894432,22.6254572 154.538363,22.2928162 C155.182293,21.9601753 155.654658,21.5314966 155.955472,21.0067673 C156.303288,20.425817 156.477193,19.4700743 156.477193,18.1395107 L156.477193,17.5913587 Z M168.693612,25.7855284 L169.046126,24.9281624 L164.308329,13.0374805 C164.016915,12.3534583 163.87121,11.8568469 163.87121,11.5476314 C163.87121,11.2196756 163.955813,10.9151498 164.125021,10.6340448 C164.294229,10.3529398 164.526886,10.1280591 164.823,9.95939615 C165.119114,9.79073315 165.426974,9.70640292 165.746589,9.70640292 C166.301214,9.70640292 166.719528,9.8820909 167.001541,10.2334721 C167.283554,10.5848534 167.532662,11.0884923 167.748872,11.744404 L171.006108,21.1894846 L174.094137,12.4049974 C174.338548,11.6928647 174.559455,11.1353482 174.756865,10.732431 C174.954274,10.3295139 175.163431,10.0577831 175.384341,9.91723061 C175.605251,9.77667811 175.917811,9.70640292 176.32203,9.70640292 C176.613444,9.70640292 176.893102,9.78370563 177.161015,9.93831338 C177.428928,10.0929211 177.635734,10.3014042 177.781441,10.5637689 C177.927148,10.8261335 178,11.1025493 178,11.3930245 C177.962398,11.5710576 177.901296,11.8240483 177.816692,12.1520042 C177.732088,12.47996 177.628685,12.8125959 177.506479,13.1499219 L172.48667,26.2493493 C172.05425,27.4018798 171.631236,28.3060873 171.217617,28.961999 C170.803998,29.6179106 170.25643,30.1215495 169.574898,30.4729308 C168.893367,30.824312 167.974487,31 166.818233,31 C165.690181,31 164.844154,30.8781897 164.280127,30.6345653 C163.716101,30.390941 163.434092,29.9458648 163.434092,29.2993233 C163.434092,28.8589254 163.568046,28.519262 163.835959,28.2803227 C164.103871,28.0413835 164.501034,27.9219157 165.027459,27.9219157 C165.234268,27.9219157 165.436375,27.9500257 165.633784,28.0062467 C165.878195,28.0624677 166.089702,28.0905778 166.26831,28.0905778 C166.710131,28.0905778 167.057942,28.0249876 167.311754,27.8938053 C167.565566,27.762623 167.793523,27.5353998 167.995632,27.2121291 C168.197742,26.8888584 168.430399,26.4133295 168.693612,25.7855284 Z" id="Lightpay" fill="#FFFFFF"></path>
            </g>
        </g>
    </g>
</svg>